<?xml version="1.0" encoding="UTF-8" standalone="no"?>
<svg
   version="1.2"
   width="67.733337mm"
   height="67.73333mm"
   viewBox="0 0 6773.3337 6773.333"
   preserveAspectRatio="xMidYMid"
   fill-rule="evenodd"
   stroke-width="28.222"
   stroke-linejoin="round"
   xml:space="preserve"
   id="svg106"
   sodipodi:docname="icon.svg"
   xmlns:inkscape="http://www.inkscape.org/namespaces/inkscape"
   xmlns:sodipodi="http://sodipodi.sourceforge.net/DTD/sodipodi-0.dtd"
   xmlns="http://www.w3.org/2000/svg"
   xmlns:svg="http://www.w3.org/2000/svg"><sodipodi:namedview
   id="namedview108"
   pagecolor="#ffffff"
   bordercolor="#000000"
   borderopacity="0.25"
   inkscape:showpageshadow="2"
   inkscape:pageopacity="0.0"
   inkscape:pagecheckerboard="0"
   inkscape:deskcolor="#d1d1d1"
   inkscape:document-units="mm"
   showgrid="false" />
 <defs
   class="ClipPathGroup"
   id="defs8"><clipPath
     id="presentation_clip_path"
     clipPathUnits="userSpaceOnUse">
   <rect
   x="0"
   y="0"
   width="4200"
   height="4150"
   id="rect2" />
  </clipPath></defs>
 <defs
   class="TextShapeIndex"
   id="defs12" />
 <defs
   class="EmbeddedBulletChars"
   id="defs44" />
 
 <g
   id="g381"
   transform="matrix(1.6778136,0,0,1.6992808,-142.72777,-204.83768)"
   inkscape:export-filename="icon.svg"
   inkscape:export-xdpi="96"
   inkscape:export-ydpi="96"><g
     id="g49"
     transform="translate(3.0677202,37.543771)">
  <g
   id="id2"
   class="Master_Slide">
   <g
   id="bg-id2"
   class="Background" />
   <g
   id="bo-id2"
   class="BackgroundObjects" />
  </g>
 </g><g
     class="SlideGroup"
     id="g104"
     transform="translate(3.0677202,37.543771)">
  <g
   id="g102">
   <g
   id="container-id1">
    <g
   id="id1"
   class="Slide"
   clip-path="url(#presentation_clip_path)">
     <g
   class="Page"
   id="g98">
      <g
   class="Group"
   id="g96">
       <g
   class="com.sun.star.drawing.ClosedBezierShape"
   id="g58">
        <g
   id="id3">
         <rect
   class="BoundingBox"
   stroke="none"
   fill="none"
   x="2264"
   y="1571"
   width="1855"
   height="2498"
   id="rect51" />
         <path
   fill="#069a2e"
   stroke="none"
   d="m 2395,3774 -113,-216 112,-223 c 122,-245 152,-287 200,-287 48,0 69,56 69,187 v 117 h 343 c 196,0 378,-8 424,-20 104,-26 194,-111 221,-207 39,-147 28,-172 -467,-1022 -81,-141 -147,-275 -147,-300 0,-62 28,-90 158,-162 94,-53 117,-60 154,-44 26,13 93,108 177,257 74,129 225,391 335,580 119,205 210,384 222,437 34,139 15,346 -42,465 -60,126 -181,253 -298,312 -169,85 -265,99 -688,99 h -392 v 124 c 0,68 -5,136 -11,152 -14,38 -84,37 -118,-3 -14,-17 -77,-128 -139,-246 z"
   id="path53" />
         <path
   fill="none"
   stroke="#000000"
   stroke-width="35"
   stroke-linejoin="miter"
   d="m 2395,3774 -113,-216 112,-223 c 122,-245 152,-287 200,-287 48,0 69,56 69,187 v 117 h 343 c 196,0 378,-8 424,-20 104,-26 194,-111 221,-207 39,-147 28,-172 -467,-1022 -81,-141 -147,-275 -147,-300 0,-62 28,-90 158,-162 94,-53 117,-60 154,-44 26,13 93,108 177,257 74,129 225,391 335,580 119,205 210,384 222,437 34,139 15,346 -42,465 -60,126 -181,253 -298,312 -169,85 -265,99 -688,99 h -392 v 124 c 0,68 -5,136 -11,152 -14,38 -84,37 -118,-3 -14,-17 -77,-128 -139,-246 z"
   id="path55" />
        </g>
       </g>
       <g
   class="com.sun.star.drawing.ClosedBezierShape"
   id="g67">
        <g
   id="id4">
         <rect
   class="BoundingBox"
   stroke="none"
   fill="none"
   x="82"
   y="1791"
   width="2045"
   height="1974"
   id="rect60" />
         <path
   fill="#2a6099"
   stroke="none"
   d="M 625,3731 C 522,3707 376,3619 293,3533 139,3376 74,3165 111,2945 c 27,-165 68,-258 268,-593 91,-151 164,-281 164,-289 0,-7 -43,-39 -94,-68 -123,-70 -146,-98 -120,-146 10,-20 37,-38 58,-39 93,-4 353,4 438,13 l 93,11 145,214 c 149,219 172,286 110,319 -26,13 -59,4 -151,-45 l -118,-62 -25,39 c -74,118 -274,465 -311,537 -63,123 -59,257 10,351 97,134 122,138 842,149 745,10 687,-9 687,227 0,128 -4,150 -36,167 -40,21 -1360,23 -1446,1 z"
   id="path62" />
         <path
   fill="none"
   stroke="#000000"
   stroke-width="35"
   stroke-linejoin="miter"
   d="M 625,3731 C 522,3707 376,3619 293,3533 139,3376 74,3165 111,2945 c 27,-165 68,-258 268,-593 91,-151 164,-281 164,-289 0,-7 -43,-39 -94,-68 -123,-70 -146,-98 -120,-146 10,-20 37,-38 58,-39 93,-4 353,4 438,13 l 93,11 145,214 c 149,219 172,286 110,319 -26,13 -59,4 -151,-45 l -118,-62 -25,39 c -74,118 -274,465 -311,537 -63,123 -59,257 10,351 97,134 122,138 842,149 745,10 687,-9 687,227 0,128 -4,150 -36,167 -40,21 -1360,23 -1446,1 z"
   id="path64" />
        </g>
       </g>
       <g
   class="com.sun.star.drawing.ClosedBezierShape"
   id="g76">
        <g
   id="id5">
         <rect
   class="BoundingBox"
   stroke="none"
   fill="none"
   x="850"
   y="83"
   width="2552"
   height="1674"
   id="rect69" />
         <path
   fill="#e6e905"
   stroke="none"
   d="m 1010,1690 c -119,-70 -142,-93 -142,-141 0,-24 148,-299 328,-611 356,-617 415,-695 598,-784 98,-49 124,-53 296,-53 181,0 195,2 312,61 178,90 292,225 487,575 88,161 170,301 180,315 14,19 38,12 115,-38 143,-91 222,-78 194,32 -13,48 -255,426 -284,445 -29,18 -507,40 -552,26 -26,-8 -39,-27 -39,-56 0,-35 24,-59 107,-112 59,-35 108,-73 108,-82 1,-22 -297,-542 -355,-617 -51,-67 -166,-128 -246,-128 -73,0 -188,55 -245,118 -27,28 -180,278 -339,554 -159,275 -302,512 -319,523 -46,35 -113,27 -204,-27 z"
   id="path71" />
         <path
   fill="none"
   stroke="#000000"
   stroke-width="35"
   stroke-linejoin="miter"
   d="m 1010,1690 c -119,-70 -142,-93 -142,-141 0,-24 148,-299 328,-611 356,-617 415,-695 598,-784 98,-49 124,-53 296,-53 181,0 195,2 312,61 178,90 292,225 487,575 88,161 170,301 180,315 14,19 38,12 115,-38 143,-91 222,-78 194,32 -13,48 -255,426 -284,445 -29,18 -507,40 -552,26 -26,-8 -39,-27 -39,-56 0,-35 24,-59 107,-112 59,-35 108,-73 108,-82 1,-22 -297,-542 -355,-617 -51,-67 -166,-128 -246,-128 -73,0 -188,55 -245,118 -27,28 -180,278 -339,554 -159,275 -302,512 -319,523 -46,35 -113,27 -204,-27 z"
   id="path73" />
        </g>
       </g>
       <g
   class="com.sun.star.drawing.ClosedBezierShape"
   id="g85">
        <g
   id="id6">
         <rect
   class="BoundingBox"
   stroke="none"
   fill="none"
   x="1429"
   y="1854"
   width="687"
   height="720"
   id="rect78" />
         <path
   fill="#ff0000"
   stroke="none"
   d="m 1786,2446 c 36,0 71,-5 105,-16 34,-10 60,-24 79,-40 v -92 h -162 v -103 h 289 v 244 c -35,36 -81,65 -137,85 -57,21 -116,31 -177,31 -108,0 -191,-30 -249,-90 -58,-60 -87,-145 -87,-255 0,-109 29,-193 87,-251 59,-58 142,-87 252,-87 155,0 254,57 297,173 l -128,38 c -14,-33 -36,-59 -65,-76 -30,-17 -64,-26 -104,-26 -65,0 -115,20 -149,59 -34,40 -51,97 -51,170 0,75 18,133 53,174 35,41 84,62 147,62 z"
   id="path80" />
         <path
   fill="none"
   stroke="#000000"
   stroke-width="35"
   stroke-linejoin="round"
   d="m 1786,2446 c 36,0 71,-5 105,-16 34,-10 60,-24 79,-40 v -92 h -162 v -103 h 289 v 244 c -35,36 -81,65 -137,85 -57,21 -116,31 -177,31 -108,0 -191,-30 -249,-90 -58,-60 -87,-145 -87,-255 0,-109 29,-193 87,-251 59,-58 142,-87 252,-87 155,0 254,57 297,173 l -128,38 c -14,-33 -36,-59 -65,-76 -30,-17 -64,-26 -104,-26 -65,0 -115,20 -149,59 -34,40 -51,97 -51,170 0,75 18,133 53,174 35,41 84,62 147,62 z"
   id="path82" />
        </g>
       </g>
       <g
   class="com.sun.star.drawing.ClosedBezierShape"
   id="g94">
        <g
   id="id7">
         <rect
   class="BoundingBox"
   stroke="none"
   fill="none"
   x="2176"
   y="1854"
   width="666"
   height="720"
   id="rect87" />
         <path
   fill="#ff0000"
   stroke="none"
   d="m 2528,2445 c 84,0 142,-42 174,-126 l 121,46 c -26,64 -64,112 -114,143 -50,31 -111,47 -181,47 -107,0 -189,-30 -247,-91 -58,-60 -87,-145 -87,-254 0,-109 28,-192 84,-251 56,-58 137,-87 244,-87 78,0 141,15 190,46 49,32 83,78 103,138 l -122,34 c -11,-34 -31,-60 -61,-80 -31,-19 -66,-29 -107,-29 -63,0 -111,19 -143,58 -32,39 -49,96 -49,171 0,77 17,135 50,175 34,40 82,60 145,60 z"
   id="path89" />
         <path
   fill="none"
   stroke="#000000"
   stroke-width="35"
   stroke-linejoin="round"
   d="m 2528,2445 c 84,0 142,-42 174,-126 l 121,46 c -26,64 -64,112 -114,143 -50,31 -111,47 -181,47 -107,0 -189,-30 -247,-91 -58,-60 -87,-145 -87,-254 0,-109 28,-192 84,-251 56,-58 137,-87 244,-87 78,0 141,15 190,46 49,32 83,78 103,138 l -122,34 c -11,-34 -31,-60 -61,-80 -31,-19 -66,-29 -107,-29 -63,0 -111,19 -143,58 -32,39 -49,96 -49,171 0,77 17,135 50,175 34,40 82,60 145,60 z"
   id="path91" />
        </g>
       </g>
      </g>
     </g>
    </g>
   </g>
  </g>
 </g></g>
</svg>
